<svg width="700" height="700" viewBox="0 0 700 700" fill="none" xmlns="http://www.w3.org/2000/svg">
<path d="M458.209 241.791C455.497 239.058 452.271 236.888 448.717 235.407C445.163 233.926 441.351 233.164 437.5 233.164C433.65 233.164 429.838 233.926 426.283 235.407C422.729 236.888 419.503 239.058 416.792 241.791L350 308.875L283.209 241.791C277.716 236.299 270.267 233.214 262.5 233.214C254.733 233.214 247.284 236.299 241.792 241.791C236.3 247.284 233.214 254.733 233.214 262.5C233.214 270.267 236.3 277.716 241.792 283.208L308.875 350L241.792 416.791C239.058 419.503 236.888 422.729 235.408 426.283C233.927 429.837 233.164 433.649 233.164 437.5C233.164 441.35 233.927 445.162 235.408 448.717C236.888 452.271 239.058 455.497 241.792 458.208C244.503 460.942 247.729 463.112 251.283 464.592C254.838 466.073 258.65 466.835 262.5 466.835C266.351 466.835 270.163 466.073 273.717 464.592C277.271 463.112 280.497 460.942 283.209 458.208L350 391.125L416.792 458.208C419.503 460.942 422.729 463.112 426.283 464.592C429.838 466.073 433.65 466.835 437.5 466.835C441.351 466.835 445.163 466.073 448.717 464.592C452.271 463.112 455.497 460.942 458.209 458.208C460.942 455.497 463.112 452.271 464.593 448.717C466.074 445.162 466.836 441.35 466.836 437.5C466.836 433.649 466.074 429.837 464.593 426.283C463.112 422.729 460.942 419.503 458.209 416.791L391.125 350L458.209 283.208C460.942 280.497 463.112 277.271 464.593 273.717C466.074 270.162 466.836 266.35 466.836 262.5C466.836 258.649 466.074 254.837 464.593 251.283C463.112 247.729 460.942 244.503 458.209 241.791V241.791ZM554.167 58.333H145.833C122.627 58.333 100.371 67.5517 83.9617 83.9612C67.5522 100.371 58.3335 122.627 58.3335 145.833V554.166C58.3335 577.373 67.5522 599.629 83.9617 616.038C100.371 632.448 122.627 641.666 145.833 641.666H554.167C577.373 641.666 599.629 632.448 616.039 616.038C632.448 599.629 641.667 577.373 641.667 554.166V145.833C641.667 122.627 632.448 100.371 616.039 83.9612C599.629 67.5517 577.373 58.333 554.167 58.333ZM583.334 554.166C583.334 561.902 580.261 569.321 574.791 574.79C569.321 580.26 561.902 583.333 554.167 583.333H145.833C138.098 583.333 130.679 580.26 125.21 574.79C119.74 569.321 116.667 561.902 116.667 554.166V145.833C116.667 138.098 119.74 130.679 125.21 125.209C130.679 119.739 138.098 116.666 145.833 116.666H554.167C561.902 116.666 569.321 119.739 574.791 125.209C580.261 130.679 583.334 138.098 583.334 145.833V554.166Z" fill="#FE45E0"/>
</svg>
