<svg width="700" height="700" viewBox="0 0 700 700" fill="none" xmlns="http://www.w3.org/2000/svg">
<path d="M466.666 247.916C446.476 247.916 426.74 253.903 409.952 265.12C393.164 276.338 380.08 292.281 372.354 310.934C364.627 329.587 362.606 350.113 366.545 369.915C370.484 389.717 380.206 407.907 394.483 422.184C408.759 436.46 426.949 446.183 446.751 450.122C466.553 454.06 487.079 452.039 505.732 444.312C524.385 436.586 540.329 423.502 551.546 406.714C562.763 389.927 568.75 370.19 568.75 350C568.75 322.926 557.995 296.96 538.85 277.816C519.706 258.672 493.741 247.916 466.666 247.916ZM466.666 393.75C458.014 393.75 449.555 391.184 442.36 386.377C435.166 381.569 429.558 374.736 426.247 366.742C422.935 358.748 422.069 349.951 423.757 341.464C425.445 332.978 429.612 325.182 435.731 319.064C441.849 312.945 449.645 308.778 458.131 307.09C466.618 305.402 475.415 306.269 483.409 309.58C491.403 312.891 498.236 318.499 503.043 325.694C507.851 332.888 510.416 341.347 510.416 350C510.416 361.603 505.807 372.731 497.602 380.936C489.398 389.14 478.27 393.75 466.666 393.75ZM466.666 145.833H233.333C179.185 145.833 127.254 167.343 88.9655 205.632C50.6769 243.921 29.1665 295.851 29.1665 350C29.1665 404.148 50.6769 456.079 88.9655 494.367C127.254 532.656 179.185 554.166 233.333 554.166H466.666C520.815 554.166 572.745 532.656 611.034 494.367C649.323 456.079 670.833 404.148 670.833 350C670.833 295.851 649.323 243.921 611.034 205.632C572.745 167.343 520.815 145.833 466.666 145.833V145.833ZM466.666 495.833H233.333C194.656 495.833 157.562 480.469 130.213 453.119C102.864 425.77 87.4998 388.677 87.4998 350C87.4998 311.322 102.864 274.229 130.213 246.88C157.562 219.531 194.656 204.166 233.333 204.166H466.666C505.344 204.166 542.437 219.531 569.786 246.88C597.135 274.229 612.5 311.322 612.5 350C612.5 388.677 597.135 425.77 569.786 453.119C542.437 480.469 505.344 495.833 466.666 495.833Z" fill="#6563FF"/>
</svg>
