<svg width="200" height="200" viewBox="0 0 200 200" fill="none" xmlns="http://www.w3.org/2000/svg">
<path d="M141.667 75.0003H74.9999V58.3336C74.9878 53.3852 76.4444 48.5445 79.1854 44.4245C81.9264 40.3045 85.8284 37.0907 90.3973 35.19C94.9661 33.2893 99.9963 32.7872 104.851 33.7474C109.705 34.7075 114.165 37.0867 117.667 40.5836C120.799 43.7842 123.04 47.7489 124.167 52.0836C124.44 53.1452 124.92 54.1424 125.579 55.0184C126.238 55.8944 127.063 56.6321 128.007 57.1892C128.951 57.7464 129.996 58.1121 131.081 58.2656C132.167 58.4191 133.272 58.3572 134.333 58.0836C135.395 57.8101 136.392 57.3301 137.268 56.6711C138.144 56.0121 138.882 55.187 139.439 54.243C139.996 53.2989 140.362 52.2543 140.515 51.1689C140.669 50.0835 140.607 48.9785 140.333 47.917C138.435 40.707 134.669 34.1248 129.417 28.8336C123.585 23.02 116.161 19.0648 108.083 17.4673C100.005 15.8699 91.6344 16.7019 84.0287 19.8583C76.4231 23.0147 69.9233 28.3539 65.35 35.2018C60.7767 42.0496 58.335 50.0991 58.3333 58.3336V75.0003C51.7028 75.0003 45.344 77.6342 40.6556 82.3226C35.9672 87.0111 33.3333 93.3699 33.3333 100V158.334C33.3333 164.964 35.9672 171.323 40.6556 176.011C45.344 180.7 51.7028 183.334 58.3333 183.334H141.667C148.297 183.334 154.656 180.7 159.344 176.011C164.033 171.323 166.667 164.964 166.667 158.334V100C166.667 93.3699 164.033 87.0111 159.344 82.3226C154.656 77.6342 148.297 75.0003 141.667 75.0003ZM150 158.334C150 160.544 149.122 162.663 147.559 164.226C145.996 165.789 143.877 166.667 141.667 166.667H58.3333C56.1231 166.667 54.0035 165.789 52.4407 164.226C50.8779 162.663 49.9999 160.544 49.9999 158.334V100C49.9999 97.7902 50.8779 95.6706 52.4407 94.1078C54.0035 92.545 56.1231 91.667 58.3333 91.667H141.667C143.877 91.667 145.996 92.545 147.559 94.1078C149.122 95.6706 150 97.7902 150 100V158.334Z" fill="#6563FF"/>
</svg>
