<svg width="70" height="70" viewBox="0 0 70 70" fill="none" xmlns="http://www.w3.org/2000/svg">
<path d="M35.875 35.6413C37.4313 34.2942 38.6795 32.6281 39.535 30.756C40.3906 28.8839 40.8333 26.8497 40.8333 24.7913C40.8333 20.9236 39.2969 17.2143 36.562 14.4794C33.8271 11.7445 30.1177 10.208 26.25 10.208C22.3822 10.208 18.6729 11.7445 15.938 14.4794C13.2031 17.2143 11.6667 20.9236 11.6667 24.7913C11.6666 26.8497 12.1094 28.8839 12.9649 30.756C13.8205 32.6281 15.0687 34.2942 16.625 35.6413C12.5421 37.4902 9.07801 40.4758 6.64702 44.2413C4.21602 48.0067 2.92095 52.3927 2.91666 56.8747C2.91666 57.6482 3.22395 58.3901 3.77093 58.9371C4.31791 59.484 5.05977 59.7913 5.83332 59.7913C6.60687 59.7913 7.34874 59.484 7.89572 58.9371C8.4427 58.3901 8.74999 57.6482 8.74999 56.8747C8.74999 52.2334 10.5937 47.7822 13.8756 44.5003C17.1575 41.2184 21.6087 39.3747 26.25 39.3747C30.8913 39.3747 35.3425 41.2184 38.6244 44.5003C41.9062 47.7822 43.75 52.2334 43.75 56.8747C43.75 57.6482 44.0573 58.3901 44.6043 58.9371C45.1512 59.484 45.8931 59.7913 46.6667 59.7913C47.4402 59.7913 48.1821 59.484 48.7291 58.9371C49.276 58.3901 49.5833 57.6482 49.5833 56.8747C49.579 52.3927 48.284 48.0067 45.853 44.2413C43.422 40.4758 39.9579 37.4902 35.875 35.6413V35.6413ZM26.25 33.5413C24.5194 33.5413 22.8277 33.0282 21.3887 32.0667C19.9498 31.1052 18.8283 29.7387 18.166 28.1398C17.5038 26.541 17.3305 24.7816 17.6681 23.0843C18.0057 21.387 18.8391 19.8279 20.0628 18.6042C21.2865 17.3804 22.8456 16.5471 24.5429 16.2095C26.2403 15.8719 27.9996 16.0451 29.5985 16.7074C31.1973 17.3697 32.5639 18.4912 33.5253 19.9301C34.4868 21.369 35 23.0608 35 24.7913C35 27.112 34.0781 29.3376 32.4372 30.9785C30.7962 32.6195 28.5706 33.5413 26.25 33.5413ZM54.6583 34.4747C56.5249 32.3727 57.7442 29.7761 58.1694 26.9973C58.5946 24.2186 58.2077 21.3761 57.0551 18.8122C55.9026 16.2482 54.0336 14.072 51.673 12.5455C49.3125 11.019 46.5611 10.2073 43.75 10.208C42.9764 10.208 42.2346 10.5153 41.6876 11.0623C41.1406 11.6093 40.8333 12.3511 40.8333 13.1247C40.8333 13.8982 41.1406 14.6401 41.6876 15.1871C42.2346 15.7341 42.9764 16.0413 43.75 16.0413C46.0706 16.0413 48.2962 16.9632 49.9372 18.6042C51.5781 20.2451 52.5 22.4707 52.5 24.7913C52.4959 26.3233 52.0896 27.8273 51.3218 29.153C50.5541 30.4787 49.4517 31.5795 48.125 32.3455C47.6926 32.5949 47.3314 32.9512 47.076 33.3802C46.8207 33.8091 46.6797 34.2965 46.6667 34.7955C46.6545 35.2907 46.7685 35.7807 46.9982 36.2196C47.2278 36.6584 47.5654 37.0316 47.9792 37.3038L49.1167 38.0622L49.4958 38.2663C53.0116 39.9339 55.9776 42.5713 58.0445 45.8681C60.1115 49.1649 61.1932 52.9837 61.1625 56.8747C61.1625 57.6482 61.4698 58.3901 62.0168 58.9371C62.5637 59.484 63.3056 59.7913 64.0792 59.7913C64.8527 59.7913 65.5946 59.484 66.1415 58.9371C66.6885 58.3901 66.9958 57.6482 66.9958 56.8747C67.0197 52.3988 65.8986 47.9912 63.7393 44.0707C61.5799 40.1501 58.4539 36.8468 54.6583 34.4747V34.4747Z" fill="#6563FF"/>
</svg>
